Coordinates
version=1
nRows=16
nColumns=36
inDegrees=yes

Units are S.I. units (second, meters, Newtons, ...)
If the header above contains a line with 'inDegrees', this indicates whether rotational values are in degrees (yes) or radians (no).

endheader
time	pelvis_tilt	pelvis_list	pelvis_rotation	pelvis_tx	pelvis_ty	pelvis_tz	hip_flexion_r	hip_adduction_r	hip_rotation_r	knee_angle_r	knee_angle_r_beta	ankle_angle_r	subtalar_angle_r	mtp_angle_r	hip_flexion_l	hip_adduction_l	hip_rotation_l	knee_angle_l	knee_angle_l_beta	ankle_angle_l	subtalar_angle_l	mtp_angle_l	lumbar_extension	lumbar_bending	lumbar_rotation	arm_flex_r	arm_add_r	arm_rot_r	elbow_flex_r	pro_sup_r	arm_flex_l	arm_add_l	arm_rot_l	elbow_flex_l	pro_sup_l
     29.93333330	     -4.09897340	     -2.07723921	     -1.39095283	      1.03090127	      0.89087526	      0.73157053	     31.85263259	     -0.39688566	      5.27994660	      5.83956604	      0.10191965	      9.57007030	      1.51837926	     -7.49999987	    -11.74755126	     -1.46008915	      4.39500661	     13.33384714	      0.23271953	     19.42019117	     -6.74921660	     -7.49999987	    -12.69390923	      4.75915140	     -6.77682790	     -6.73720425	    -16.79876133	     -1.28633814	     24.00966363	     73.78474585	     10.77582992	    -17.25914967	     12.90878140	     42.06881122	     77.65766701
     29.95000000	     -4.84694952	     -2.56730474	     -0.93607157	      1.03198724	      0.88949606	      0.73122106	     32.43166059	      0.22602100	      4.95276289	      7.38570771	      0.12890492	      8.40340329	      1.65590119	     -7.49999987	    -11.47164432	     -2.20591771	      3.58167952	     15.93886145	      0.27818561	     19.34848655	     -5.96029826	     -7.49999987	    -11.72858103	      5.59506246	     -7.36293616	     -6.52962530	    -17.44005419	     -1.95525300	     23.98578788	     73.99166343	     11.26131144	    -16.84530280	     13.64609397	     41.24612555	     77.44182520
     29.96666670	     -5.36516454	     -3.11085502	     -0.66873298	      1.03420710	      0.88936596	      0.73171318	     32.57838685	      0.99646050	      4.65018639	      9.18934775	      0.16038437	      6.89969202	      1.85006171	     -7.49999987	    -11.31203801	     -2.95308657	      2.81493966	     18.64707937	      0.32545293	     18.17232825	     -5.25928425	     -7.49999987	    -10.86947480	      6.44339131	     -7.59035626	     -6.07259154	    -18.04440616	     -2.36386830	     23.42642429	     74.44777676	     11.78540335	    -16.10750950	     14.18227211	     39.88574965	     77.35231254
     29.98333330	     -5.49776999	     -3.68740963	     -0.73911330	      1.03757449	      0.89025734	      0.73413727	     32.17553000	      1.95551396	      4.80118801	     10.96342431	      0.19134785	      5.32312214	      1.67550964	     -7.49999987	    -11.36123293	     -3.66868733	      2.06563335	     21.42622116	      0.37395811	     15.77891829	     -4.93042080	     -7.49999987	    -10.48684614	      7.26165089	     -7.52130111	     -5.76670365	    -18.61968152	     -2.77851785	     23.36050538	     75.09291473	     11.99657550	    -15.26975620	     14.13272949	     38.61726745	     77.39713391
     30.00000000	     -5.34001354	     -4.38954918	     -1.11519440	      1.04368851	      0.89211790	      0.73893111	     31.35745064	      3.17291133	      5.10185956	     12.72782736	      0.22214249	      4.08595854	      1.37193782	     -7.49999987	    -11.38847140	     -4.52391696	      1.15593815	     24.55149457	      0.42850442	     12.02989185	     -4.94139447	     -7.49999987	    -10.38707892	      8.19086873	     -7.01611267	     -5.33091655	    -19.12733887	     -2.99541799	     23.08044255	     74.79649062	     11.79876392	    -14.19823259	     13.38348933	     37.38100065	     76.60283061
     30.01666670	     -4.86720469	     -5.24548415	     -1.64719205	      1.05116838	      0.89452334	      0.74514686	     30.11607670	      4.66696044	      5.54418791	     14.51546893	      0.25334273	      3.18098461	      0.68252978	     -7.49999987	    -11.28780917	     -5.67979586	      0.02574907	     28.27311491	      0.49345894	      7.20606622	     -4.93459535	     -7.49999987	    -10.65549643	      9.20340224	     -6.20067541	     -4.85982642	    -19.48779645	     -2.95859780	     22.87446229	     74.99283754	     11.23764103	    -13.20945318	     12.63795210	     36.28179707	     76.34445373
     30.03333330	     -4.24923521	     -6.09138713	     -2.16442169	      1.05584413	      0.89553979	      0.75113439	     28.78318257	      6.15460382	      5.84803845	     16.55261981	      0.28889772	      3.07136050	      0.22466113	     -7.49999987	    -10.64788518	     -6.98393714	     -1.04585195	     32.89699995	      0.57416096	      1.91569241	     -4.87262699	     -7.49999987	    -11.20032318	     10.20057490	     -5.30081171	     -4.17594399	    -19.61229161	     -2.85463873	     22.76161411	     75.06035511	     10.47863390	    -12.46411404	     12.13146697	     35.38278930	     76.09951270
     30.05000000	     -3.39746608	     -6.71390607	     -2.47693687	      1.05636964	      0.89746008	      0.75646937	     27.16420416	      7.31340299	      6.20258495	     18.51544231	      0.32315543	      3.32680615	     -0.23953642	     -7.49999987	     -9.49556340	     -8.06467692	     -1.43813567	     38.24468413	      0.66749566	     -3.87696881	     -5.49744070	     -7.49999987	    -12.20519636	     10.80269563	     -4.38946837	     -3.22017911	    -19.34812377	     -2.38387559	     22.15624970	     74.60759104	     10.15882356	    -11.61200295	     10.92825494	     33.61868314	     75.05909719
     30.06666670	     -2.99030176	     -7.00744739	     -2.74492058	      1.05693956	      0.90148395	      0.76196179	     25.89288827	      8.12496942	      6.80203196	     20.20127542	      0.35257877	      3.52098180	     -1.18897971	     -7.49999987	     -7.28293005	     -8.83074693	     -1.49698842	     44.01361333	      0.76818247	     -8.91410110	     -5.96135838	     -7.49999987	    -12.76094085	     11.04921296	     -3.55539721	     -2.59656145	    -18.93649233	     -1.63440174	     21.89244260	     74.97552960	      9.58740978	    -11.19415106	     10.36205735	     32.46166064	     74.93878113
     30.08333330	     -2.50671062	     -7.00047627	     -2.81297082	      1.05922884	      0.90979939	      0.76761936	     24.35150471	      8.55554785	      7.46616970	     21.44914471	      0.37435820	      3.90535970	     -1.73610134	     -7.49999987	     -4.85336402	     -9.21441333	     -1.05030929	     49.47437279	      0.86349070	    -12.89352060	     -6.31434994	     -7.49999987	    -13.42949377	     10.89356664	     -3.59547801	     -1.21608668	    -18.34791676	      1.31692952	     20.98556648	     75.86570029	      8.76741194	    -11.25627312	      8.95473182	     31.09604816	     74.89572195
     30.10000000	     -2.03058260	     -6.54029937	     -2.65510329	      1.06198119	      0.91870127	      0.77221820	     22.50024606	      8.42063537	      8.14101904	     21.95695310	      0.38322113	      4.12351561	     -2.38261964	     -7.49999987	     -2.23189282	     -9.02329756	     -0.40437791	     54.34847873	      0.94855990	    -15.76660211	     -6.84906681	     -7.49999987	    -14.17830675	     10.27163025	     -3.20857511	     -0.43798373	    -17.43522203	      1.83034078	     20.99568435	     75.15498325	      8.44092175	    -11.35863966	      8.65755265	     29.68018777	     74.28913249
     30.11666670	     -1.55615640	     -5.79021853	     -2.28177981	      1.06295759	      0.92302620	      0.77493419	     20.46461871	      7.89962828	      8.78375927	     22.06183883	      0.38505173	      4.52957181	     -2.87706794	     -7.49999987	      0.39228735	     -8.34998192	      0.30341691	     58.49010558	      1.02084492	    -16.93407856	     -7.35754440	     -7.49999987	    -14.84455354	      9.31783662	     -2.83167072	      0.36183150	    -16.55305333	      2.26510318	     21.08793669	     74.50652725	      8.27443399	    -11.47434903	      8.51613187	     28.30910863	     73.57751407
     30.13333330	     -1.17983800	     -4.77640090	     -1.71593832	      1.06200785	      0.92430799	      0.77632065	     18.43895086	      7.00696328	      9.30830152	     22.02846559	      0.38446925	      5.33350034	     -3.26375213	     -7.49999987	      2.98584623	     -7.18718419	      0.96789035	     61.68981491	      1.07669039	    -16.25403089	     -7.98007300	     -7.49999987	    -15.25033418	      8.08751333	     -2.55059147	      1.28023457	    -15.78774594	      2.92364806	     21.25449220	     73.91394249	      8.21266596	    -11.59451622	      8.63548733	     26.92905418	     72.85700609
     30.15000000	     -0.58684369	     -3.67211982	     -0.95025681	      1.06016753	      0.92985578	      0.77759820	     15.97868947	      5.86959521	      9.44877455	     21.63022667	      0.37751867	      6.25275097	     -3.35727244	     -7.49999987	      5.21234771	     -5.76268931	      1.67063088	     63.67800971	      1.11139093	    -14.05700194	     -9.04905937	     -7.49999987	    -15.96543264	      6.80357920	     -2.42301889	      2.24301309	    -14.98431508	      3.21024137	     22.04310538	     72.97337562	      8.10972774	    -11.69875720	      8.57573800	     25.99737382	     71.88432233
     30.16666670	     -0.31701385	     -2.42017953	     -0.43763591	      1.05870184	      0.93805742	      0.77999948	     13.72681626	      4.57926558	      9.38201734	     20.88859058	      0.36457468	      7.10050781	     -2.98342812	     -7.49999987	      7.86238494	     -4.33043225	      2.02431758	     64.73954942	      1.12991829	    -10.49893765	     -9.74335984	     -7.49999987	    -16.12349239	      5.17717598	     -1.73669115	      3.31057118	    -14.41779902	      5.46445316	     21.58320689	     73.51893787	      8.51057961	    -11.69118381	      9.73913908	     24.19701784	     71.96659410
     30.18333330	      0.18170549	     -1.20765469	     -0.11384342	      1.05771558	      0.94476655	      0.78269764	     11.16173206	      3.30500873	      8.96890815	     19.78106496	      0.34524471	      7.72566903	     -2.33982688	     -7.49999987	     10.48466437	     -3.12100970	      2.21427710	     65.03681106	      1.13510649	     -7.41492471	    -10.77243062	     -7.49999987	    -16.84943142	      3.53435739	     -1.00874471	      4.25562025	    -13.74275786	      5.75669462	     22.23754434	     72.71364205	      8.62803488	    -11.57233986	      9.37797736	     23.59003875	     71.08590641
